# 3ds Max Wavefront OBJ Exporter v0.99 - (c)2007 guruware
# File Created: 09.11.2022 09:06:04

#
# object Wings
#

v  -7.1721 5.1397 -3.6704
v  -6.5781 5.8053 -3.6628
v  -5.8359 4.9885 -3.4148
v  -6.4872 4.6084 -3.4930
v  -8.1350 5.4391 -3.6577
v  -7.5269 6.2906 -3.6963
v  -9.0743 5.4107 -3.2115
v  -8.3247 6.4670 -3.2997
v  -9.1452 5.3314 -3.0637
v  -8.3555 6.3826 -3.0908
v  -5.5087 4.3150 -3.0732
v  -6.1692 3.8158 -3.1035
v  -8.1227 5.3040 -3.4490
v  -7.2859 5.0212 -3.4956
v  -6.6610 4.5400 -3.2964
v  -6.2928 3.6261 -2.8943
v  -5.4929 4.1886 -2.8831
v  -4.7322 4.7676 -2.7070
v  -4.7394 4.5349 -2.5583
v  -3.9337 4.8524 -2.0202
v  -4.0912 4.5492 -1.8997
v  -3.4910 4.4484 -1.3203
v  -3.7417 4.1292 -1.1343
v  -5.0442 5.4621 -2.9961
v  -4.3418 5.8597 -2.4141
v  -5.7183 6.4091 -3.2424
v  -6.4540 7.1525 -3.2314
v  -7.1652 7.4880 -2.9797
v  -7.2654 7.3661 -2.6038
v  -6.3445 7.9712 -2.0253
v  -6.1473 8.0481 -2.4028
v  -5.7112 8.1179 -1.5569
v  -5.5371 8.1958 -1.8606
v  -5.2776 7.7518 -1.4929
v  -4.9917 7.7219 -1.8920
v  -5.6027 7.6221 -2.6276
v  -4.7072 7.1335 -1.3799
v  -4.4534 7.0828 -1.8257
v  -4.9497 6.8702 -2.6213
v  -3.9391 6.3048 -1.6202
v  -3.6056 5.6532 -1.3320
v  -3.4091 5.0361 -0.9358
v  -3.8487 5.6939 -0.8433
v  -3.6006 5.0795 -0.5164
v  -4.1723 6.3274 -1.1377
v  -4.0787 5.3915 -0.9137
v  -3.8616 4.6597 -0.6113
v  -4.0080 5.2228 -1.3529
v  -3.7113 4.4416 -0.9422
v  -4.3884 6.1326 -1.2134
v  -4.4917 6.0649 -1.6926
v  -4.9050 6.9030 -1.5034
v  -4.9436 6.6476 -1.8440
v  -5.6985 7.5796 -1.8452
v  -6.0504 4.8581 -2.9873
v  -7.4740 6.0525 -3.2793
v  -5.0647 5.2173 -2.4907
v  -6.6924 5.5614 -3.2759
v  -6.3301 6.9758 -2.5447
v  -5.5139 6.0291 -2.5454
v  7.1721 5.1397 -3.6704
v  6.4872 4.6084 -3.4930
v  5.8359 4.9885 -3.4148
v  6.5781 5.8053 -3.6628
v  8.1350 5.4391 -3.6577
v  7.5269 6.2906 -3.6963
v  9.0743 5.4107 -3.2115
v  8.3247 6.4670 -3.2997
v  9.1452 5.3314 -3.0637
v  8.3555 6.3826 -3.0908
v  5.5087 4.3150 -3.0732
v  6.1692 3.8158 -3.1035
v  8.1227 5.3040 -3.4490
v  7.2859 5.0212 -3.4956
v  6.6610 4.5400 -3.2964
v  6.2928 3.6261 -2.8943
v  5.4929 4.1886 -2.8831
v  4.7322 4.7676 -2.7070
v  4.7394 4.5349 -2.5583
v  3.9337 4.8524 -2.0202
v  4.0912 4.5492 -1.8997
v  3.4910 4.4484 -1.3203
v  3.7417 4.1292 -1.1343
v  5.0442 5.4621 -2.9961
v  4.3418 5.8597 -2.4141
v  5.7183 6.4091 -3.2424
v  6.4540 7.1525 -3.2314
v  7.1652 7.4880 -2.9797
v  7.2654 7.3661 -2.6038
v  6.3445 7.9712 -2.0253
v  6.1473 8.0481 -2.4028
v  5.7112 8.1179 -1.5569
v  5.5371 8.1958 -1.8606
v  5.2776 7.7518 -1.4929
v  4.9917 7.7219 -1.8920
v  5.6027 7.6221 -2.6276
v  4.7072 7.1335 -1.3799
v  4.4534 7.0828 -1.8257
v  4.9497 6.8702 -2.6213
v  3.9391 6.3048 -1.6202
v  3.6056 5.6532 -1.3320
v  3.4091 5.0361 -0.9358
v  3.8487 5.6939 -0.8433
v  3.6006 5.0795 -0.5164
v  4.1723 6.3274 -1.1377
v  4.0787 5.3915 -0.9137
v  3.8616 4.6597 -0.6113
v  4.0080 5.2228 -1.3529
v  3.7113 4.4416 -0.9422
v  4.3884 6.1326 -1.2134
v  4.4917 6.0649 -1.6926
v  4.9050 6.9030 -1.5034
v  4.9436 6.6476 -1.8440
v  5.6985 7.5796 -1.8452
v  6.0504 4.8581 -2.9873
v  7.4740 6.0525 -3.2793
v  5.0647 5.2173 -2.4907
v  6.6924 5.5614 -3.2759
v  6.3301 6.9758 -2.5447
v  5.5139 6.0291 -2.5454
# 120 vertices

vn -0.1025 -0.3606 -0.9271
vn 0.2073 0.0959 -0.9736
vn 0.3723 -0.1154 -0.9209
vn -0.0669 -0.4242 -0.9031
vn -0.3135 -0.3210 -0.8937
vn -0.1178 0.3232 -0.9390
vn -0.7660 -0.1072 -0.6338
vn -0.6549 0.6038 -0.4544
vn -0.7520 -0.4733 0.4587
vn -0.5268 0.3431 0.7777
vn 0.4967 -0.4594 -0.7363
vn 0.1466 -0.6700 -0.7278
vn -0.0691 -0.9622 0.2633
vn -0.4366 -0.8702 0.2282
vn -0.8021 -0.5527 0.2263
vn -0.3498 -0.8418 0.4112
vn 0.3443 -0.8217 0.4541
vn 0.6025 -0.2370 -0.7621
vn 0.1877 -0.9794 0.0750
vn 0.7376 -0.1976 -0.6457
vn -0.1129 -0.9877 -0.1079
vn 0.7051 -0.3219 -0.6318
vn -0.7312 -0.6810 -0.0398
vn 0.5464 0.0338 -0.8368
vn 0.7207 0.1542 -0.6759
vn 0.4129 0.2378 -0.8792
vn 0.1665 0.4926 -0.8542
vn -0.3861 0.7915 -0.4738
vn -0.6231 0.3508 0.6990
vn -0.6054 0.5302 0.5936
vn -0.0765 0.9022 -0.4244
vn -0.2305 0.5115 0.8278
vn 0.3484 0.9346 -0.0712
vn 0.0993 0.3029 0.9478
vn 0.7245 0.6807 -0.1083
vn 0.4174 0.5954 -0.6865
vn 0.2366 0.4053 0.8830
vn 0.8113 0.5680 -0.1384
vn 0.6103 0.3690 -0.7010
vn 0.8761 0.4615 -0.1397
vn 0.9336 0.3385 -0.1176
vn 0.9547 0.2974 -0.0104
vn 0.2186 0.5056 0.8346
vn -0.0267 0.4611 0.8869
vn 0.2659 0.4728 0.8401
vn -0.8590 -0.0949 0.5032
vn -0.9588 -0.2020 0.1997
vn -0.8888 -0.3476 0.2987
vn -0.9472 -0.2643 0.1816
vn -0.7440 -0.1287 0.6557
vn -0.7759 -0.3265 0.5399
vn -0.6452 -0.2709 0.7144
vn -0.5830 -0.4309 0.6888
vn -0.5174 -0.3563 0.7781
vn -0.4118 -0.1012 0.9056
vn -0.0751 -0.3729 0.9248
vn -0.5496 -0.2950 0.7816
vn -0.3377 -0.2305 0.9126
vn -0.3467 -0.4375 0.8297
vn -0.5114 -0.3403 0.7891
vn 0.1025 -0.3606 -0.9271
vn 0.0669 -0.4242 -0.9031
vn -0.3723 -0.1154 -0.9209
vn -0.2073 0.0959 -0.9736
vn 0.3135 -0.3210 -0.8937
vn 0.1178 0.3232 -0.9390
vn 0.7660 -0.1072 -0.6338
vn 0.6549 0.6038 -0.4544
vn 0.7520 -0.4733 0.4587
vn 0.5268 0.3431 0.7777
vn -0.4967 -0.4594 -0.7363
vn -0.1466 -0.6700 -0.7278
vn 0.0691 -0.9622 0.2633
vn 0.4366 -0.8702 0.2282
vn 0.8021 -0.5527 0.2263
vn 0.3498 -0.8418 0.4112
vn -0.3443 -0.8217 0.4541
vn -0.6025 -0.2370 -0.7621
vn -0.1877 -0.9794 0.0750
vn -0.7376 -0.1976 -0.6457
vn 0.1129 -0.9877 -0.1079
vn -0.7051 -0.3219 -0.6318
vn 0.7312 -0.6810 -0.0398
vn -0.5464 0.0338 -0.8368
vn -0.7207 0.1542 -0.6759
vn -0.4129 0.2378 -0.8792
vn -0.1665 0.4926 -0.8542
vn 0.3861 0.7915 -0.4738
vn 0.6231 0.3508 0.6990
vn 0.6054 0.5302 0.5936
vn 0.0765 0.9022 -0.4244
vn 0.2305 0.5115 0.8278
vn -0.3484 0.9346 -0.0712
vn -0.0993 0.3029 0.9478
vn -0.7245 0.6807 -0.1083
vn -0.4174 0.5954 -0.6865
vn -0.2366 0.4053 0.8830
vn -0.8113 0.5680 -0.1384
vn -0.6103 0.3690 -0.7010
vn -0.8761 0.4615 -0.1397
vn -0.9336 0.3385 -0.1176
vn -0.9547 0.2974 -0.0104
vn -0.2186 0.5056 0.8346
vn 0.0267 0.4611 0.8869
vn -0.2659 0.4728 0.8401
vn 0.8590 -0.0949 0.5032
vn 0.9588 -0.2020 0.1997
vn 0.8888 -0.3476 0.2987
vn 0.9472 -0.2643 0.1816
vn 0.7440 -0.1287 0.6557
vn 0.7759 -0.3265 0.5399
vn 0.6452 -0.2709 0.7144
vn 0.5830 -0.4309 0.6888
vn 0.5174 -0.3563 0.7781
vn 0.4118 -0.1012 0.9056
vn 0.0751 -0.3729 0.9248
vn 0.5496 -0.2950 0.7816
vn 0.3377 -0.2305 0.9126
vn 0.3467 -0.4375 0.8297
vn 0.5114 -0.3403 0.7891
# 120 vertex normals

vt 1.0000 1.0000 1.0000
# 1 texture coords

o Wings
g Wings
s 3
f 1/1/1 2/1/2 3/1/3 4/1/4 
s 257
f 5/1/5 6/1/6 2/1/2 1/1/1 
s 5
f 7/1/7 8/1/8 6/1/6 5/1/5 
s 35
f 9/1/9 10/1/10 8/1/8 7/1/7 
s 73
f 11/1/11 12/1/12 4/1/4 3/1/3 
s 142
f 9/1/9 7/1/7 5/1/5 13/1/13 
s 9088
f 13/1/13 5/1/5 1/1/1 14/1/14 
s 8230
f 14/1/14 1/1/1 4/1/4 15/1/15 
s 736
f 15/1/15 4/1/4 12/1/12 16/1/16 
s 538
f 16/1/16 12/1/12 11/1/11 17/1/17 
s 2100
f 18/1/18 19/1/19 17/1/17 11/1/11 
s 10250
f 20/1/20 21/1/21 19/1/19 18/1/18 
s 8196
f 22/1/22 23/1/23 21/1/21 20/1/20 
s 33
f 18/1/18 11/1/11 3/1/3 24/1/24 
s 9
f 25/1/25 20/1/20 18/1/18 24/1/24 
s 1
f 24/1/24 3/1/3 2/1/2 26/1/26 
f 26/1/26 2/1/2 6/1/6 27/1/27 
f 27/1/27 6/1/6 8/1/8 28/1/28 
f 28/1/28 8/1/8 10/1/10 29/1/29 
f 30/1/30 31/1/31 28/1/28 29/1/29 
f 32/1/32 33/1/33 31/1/31 30/1/30 
f 34/1/34 35/1/35 33/1/33 32/1/32 
f 36/1/36 31/1/31 33/1/33 35/1/35 
f 27/1/27 28/1/28 31/1/31 36/1/36 
f 37/1/37 38/1/38 35/1/35 34/1/34 
f 39/1/39 36/1/36 35/1/35 38/1/38 
f 26/1/26 27/1/27 36/1/36 39/1/39 
f 26/1/26 39/1/39 25/1/25 24/1/24 
f 25/1/25 39/1/39 38/1/38 40/1/40 
f 41/1/41 20/1/20 25/1/25 40/1/40 
s 5
f 42/1/42 22/1/22 20/1/20 41/1/41 
s 1
f 43/1/43 44/1/44 42/1/42 41/1/41 
f 43/1/43 41/1/41 40/1/40 45/1/45 
f 45/1/45 40/1/40 38/1/38 37/1/37 
s 3
f 46/1/46 47/1/47 44/1/44 43/1/43 
s 14
f 48/1/48 49/1/49 47/1/47 46/1/46 
s 17
f 46/1/46 43/1/43 45/1/45 50/1/50 
s 120
f 51/1/51 48/1/48 46/1/46 50/1/50 
s 3
f 50/1/50 45/1/45 37/1/37 52/1/52 
s 70
f 53/1/53 51/1/51 50/1/50 52/1/52 
s 1
f 52/1/52 37/1/37 34/1/34 54/1/54 
s 66816
f 55/1/55 15/1/15 16/1/16 17/1/17 
s 4208
f 56/1/56 10/1/10 9/1/9 13/1/13 
s 32768
f 21/1/21 23/1/23 49/1/49 48/1/48 
s 120320
f 57/1/57 19/1/19 21/1/21 48/1/48 
s 4544
f 17/1/17 19/1/19 57/1/57 55/1/55 
s 114712
f 58/1/58 14/1/14 15/1/15 55/1/55 
s 23552
f 13/1/13 14/1/14 58/1/58 56/1/56 
s 17
f 59/1/59 29/1/29 10/1/10 56/1/56 
s 2561
f 59/1/59 56/1/56 58/1/58 60/1/60 
s 131217
f 55/1/55 57/1/57 60/1/60 58/1/58 
s 466944
f 48/1/48 51/1/51 60/1/60 57/1/57 
s 262912
f 51/1/51 53/1/53 59/1/59 60/1/60 
s 1
f 54/1/54 34/1/34 32/1/32 30/1/30 
s 261
f 54/1/54 59/1/59 53/1/53 52/1/52 
s 1
f 59/1/59 54/1/54 30/1/30 29/1/29 
s 3
f 61/1/61 62/1/62 63/1/63 64/1/64 
s 257
f 65/1/65 61/1/61 64/1/64 66/1/66 
s 5
f 67/1/67 65/1/65 66/1/66 68/1/68 
s 35
f 69/1/69 67/1/67 68/1/68 70/1/70 
s 73
f 71/1/71 63/1/63 62/1/62 72/1/72 
s 142
f 69/1/69 73/1/73 65/1/65 67/1/67 
s 9088
f 73/1/73 74/1/74 61/1/61 65/1/65 
s 8230
f 74/1/74 75/1/75 62/1/62 61/1/61 
s 736
f 75/1/75 76/1/76 72/1/72 62/1/62 
s 538
f 76/1/76 77/1/77 71/1/71 72/1/72 
s 2100
f 78/1/78 71/1/71 77/1/77 79/1/79 
s 10250
f 80/1/80 78/1/78 79/1/79 81/1/81 
s 8196
f 82/1/82 80/1/80 81/1/81 83/1/83 
s 33
f 78/1/78 84/1/84 63/1/63 71/1/71 
s 9
f 85/1/85 84/1/84 78/1/78 80/1/80 
s 1
f 84/1/84 86/1/86 64/1/64 63/1/63 
f 86/1/86 87/1/87 66/1/66 64/1/64 
f 87/1/87 88/1/88 68/1/68 66/1/66 
f 88/1/88 89/1/89 70/1/70 68/1/68 
f 90/1/90 89/1/89 88/1/88 91/1/91 
f 92/1/92 90/1/90 91/1/91 93/1/93 
f 94/1/94 92/1/92 93/1/93 95/1/95 
f 96/1/96 95/1/95 93/1/93 91/1/91 
f 87/1/87 96/1/96 91/1/91 88/1/88 
f 97/1/97 94/1/94 95/1/95 98/1/98 
f 99/1/99 98/1/98 95/1/95 96/1/96 
f 86/1/86 99/1/99 96/1/96 87/1/87 
f 86/1/86 84/1/84 85/1/85 99/1/99 
f 85/1/85 100/1/100 98/1/98 99/1/99 
f 101/1/101 100/1/100 85/1/85 80/1/80 
s 5
f 102/1/102 101/1/101 80/1/80 82/1/82 
s 1
f 103/1/103 101/1/101 102/1/102 104/1/104 
f 103/1/103 105/1/105 100/1/100 101/1/101 
f 105/1/105 97/1/97 98/1/98 100/1/100 
s 3
f 106/1/106 103/1/103 104/1/104 107/1/107 
s 14
f 108/1/108 106/1/106 107/1/107 109/1/109 
s 17
f 106/1/106 110/1/110 105/1/105 103/1/103 
s 120
f 111/1/111 110/1/110 106/1/106 108/1/108 
s 3
f 110/1/110 112/1/112 97/1/97 105/1/105 
s 70
f 113/1/113 112/1/112 110/1/110 111/1/111 
s 1
f 112/1/112 114/1/114 94/1/94 97/1/97 
s 66816
f 115/1/115 77/1/77 76/1/76 75/1/75 
s 4208
f 116/1/116 73/1/73 69/1/69 70/1/70 
s 32768
f 81/1/81 108/1/108 109/1/109 83/1/83 
s 120320
f 117/1/117 108/1/108 81/1/81 79/1/79 
s 4544
f 77/1/77 115/1/115 117/1/117 79/1/79 
s 114712
f 118/1/118 115/1/115 75/1/75 74/1/74 
s 23552
f 73/1/73 116/1/116 118/1/118 74/1/74 
s 17
f 119/1/119 116/1/116 70/1/70 89/1/89 
s 2561
f 119/1/119 120/1/120 118/1/118 116/1/116 
s 131217
f 115/1/115 118/1/118 120/1/120 117/1/117 
s 466944
f 108/1/108 117/1/117 120/1/120 111/1/111 
s 262912
f 111/1/111 120/1/120 119/1/119 113/1/113 
s 1
f 114/1/114 90/1/90 92/1/92 94/1/94 
s 261
f 114/1/114 112/1/112 113/1/113 119/1/119 
s 1
f 119/1/119 89/1/89 90/1/90 114/1/114 
# 112 polygons

